<?xml version="1.0" encoding="UTF-8"?>
<svg width="24px" height="24px" viewBox="0 0 24 24" version="1.1" xmlns="http://www.w3.org/2000/svg" xmlns:xlink="http://www.w3.org/1999/xlink">
    <!-- Generator: Sketch 56.3 (81716) - https://sketch.com -->
    <title>icon / helix</title>
    <desc>Created with Sketch.</desc>
    <g id="icon-/-helix" stroke="none" stroke-width="1" fill="none" fill-rule="evenodd">
        <path d="M8.2182481,20.283152 C7.7043121,20.283152 7.3615921,20.625872 7.3615921,21.139808 C7.3615921,21.653888 7.7043121,21.99632 8.2182481,21.99632 L15.8061841,21.99632 C16.3201201,21.99632 16.6628401,21.653888 16.6628401,21.139808 C16.6628401,20.625872 16.3201201,20.283152 15.8061841,20.283152 L8.2182481,20.283152 Z M13.8621841,18.515696 C14.3762641,18.515696 14.7188401,18.172976 14.7188401,17.658896 C14.7188401,17.14496 14.3762641,16.80224 13.8621841,16.80224 L10.1622481,16.80224 C9.6483121,16.80224 9.3055921,17.14496 9.3055921,17.658896 C9.3055921,18.172976 9.6483121,18.515696 10.1622481,18.515696 L13.8621841,18.515696 Z M15.8061841,3.663104 C16.3202641,3.663104 16.6628401,3.320384 16.6628401,2.806448 C16.6628401,2.292368 16.3202641,1.949792 15.8061841,1.949792 L8.2182481,1.949792 C7.7043121,1.949792 7.3615921,2.292368 7.3615921,2.806448 C7.3615921,3.320384 7.7043121,3.663104 8.2182481,3.663104 L15.8061841,3.663104 Z M10.1622481,5.438336 C9.6483121,5.438336 9.3055921,5.781056 9.3055921,6.294992 C9.3055921,6.809072 9.6483121,7.151792 10.1622481,7.151792 L13.8621841,7.151792 C14.3761201,7.151792 14.7188401,6.809072 14.7188401,6.294992 C14.7188401,5.781056 14.3761201,5.438336 13.8621841,5.438336 L10.1622481,5.438336 Z M19.8816721,23.453456 C19.8639601,23.453456 19.8463921,23.453168 19.8265201,23.451872 C19.5421201,23.437472 19.2804721,23.313344 19.0898161,23.102096 C18.8988721,22.890992 18.8018161,22.616672 18.8165041,22.327664 C18.8255761,22.079696 18.9599281,16.219904 12.0698161,13.216496 L12.0123601,13.19144 L11.9547601,13.216496 C5.0633521,16.22048 5.1991441,22.083728 5.2085041,22.333856 C5.2229041,22.618112 5.1257041,22.890848 4.9347601,23.10224 C4.7441041,23.313344 4.4821681,23.437472 4.1963281,23.45216 C3.9149521,23.467424 3.6435121,23.372672 3.4332721,23.183744 C3.2200081,22.99208 3.0945841,22.72856 3.0800401,22.441856 C3.0696721,22.235072 3.0077521,20.354288 4.0186321,18.015152 C4.7371921,16.352672 6.2398321,13.989344 9.3175441,12.171056 L9.5302321,12.045344 L9.3161041,11.92208 C6.0422641,10.040288 4.5384721,7.61288 3.8533201,5.907776 C2.9017681,3.539984 3.0797521,1.653728 3.1030801,1.446368 C3.1350481,1.163552 3.2751601,0.909968 3.4976401,0.732416 C3.6882961,0.580496 3.9169681,0.499926352 4.1588881,0.499926352 C4.1994961,0.499926352 4.2403921,0.502592 4.2814321,0.507056 C4.8618961,0.572576 5.2833841,1.099616 5.2210321,1.683824 C5.1975601,1.930352 4.7261041,7.758176 11.9554801,10.86008 L12.0123601,10.884416 L12.0690961,10.86008 C19.2978961,7.758464 18.8267281,1.92704 18.8029681,1.678928 C18.7410481,1.098176 19.1629681,0.572576 19.7435761,0.507056 C20.0268241,0.474368 20.3043121,0.554864 20.5269361,0.732416 C20.7495601,0.909968 20.8895281,1.163552 20.9214961,1.446224 C20.9448241,1.653728 21.1222321,3.541424 20.1714001,5.907776 C19.4861041,7.61288 17.9820241,10.040432 14.7086161,11.92208 L14.4943441,12.045344 L14.7071761,12.171056 C17.7850321,13.989344 19.2875281,16.352672 20.0060881,18.015152 C21.0181201,20.357024 20.9550481,22.235216 20.9445361,22.441568 C20.9158801,23.009072 20.4490321,23.453456 19.8816721,23.453456 Z" id="Path" fill="#596680"></path>
    </g>
</svg>